<?xml version="1.0" encoding="UTF-8"?>
<svg width="24px" height="24px" viewBox="0 0 24 24" version="1.1" xmlns="http://www.w3.org/2000/svg" xmlns:xlink="http://www.w3.org/1999/xlink">
    <!-- Generator: Sketch 48.2 (47327) - http://www.bohemiancoding.com/sketch -->
    <title>Combined Shape</title>
    <desc>Created with Sketch.</desc>
    <defs></defs>
    <g id="1.-Topic-Picker,-automatic-Copy-18" stroke="none" stroke-width="1" fill="none" fill-rule="evenodd" transform="translate(-982.000000, -243.000000)">
        <g id="modal" transform="translate(256.000000, 100.000000)" fill="#FFFFFF">
            <g id="Group-6" transform="translate(224.000000, 143.000000)">
                <g id="Group-8-Copy-3" transform="translate(502.000000, 0.000000)">
                    <g id="Group">
                        <g id="Group-2" transform="translate(0.000000, 0.000000)">
                            <path d="M-3.55271368e-15,12 C-3.55271368e-15,5.373 5.373,-1.77635684e-15 12,-1.77635684e-15 C18.627,-1.77635684e-15 24,5.373 24,12 C24,18.627 18.627,24 12,24 C5.373,24 -3.55271368e-15,18.627 -3.55271368e-15,12 Z M10.5836678,17.75 L17.6344584,10.2611154 C18.1218472,9.74401427 18.1218472,8.90532757 17.6344584,8.38822647 C17.1470696,7.87059118 16.3578921,7.87059118 15.8705033,8.38822647 L10.5836678,14.0026196 L8.12911947,11.3957463 C7.64223366,10.878111 6.85255315,10.878111 6.36516436,11.3957463 C5.87827855,11.9128474 5.87827855,12.7515341 6.36516436,13.2691694 L10.5836678,17.75 Z" id="Combined-Shape"></path>
                        </g>
                    </g>
                </g>
            </g>
        </g>
    </g>
</svg>